# xmcd
#
# Track frame offsets:
#	150
#	15025
#	30550
#	42275
#	55962
#	64012
#	74912
#	87725
#	96200
#	107750
#	118887
#	133975
#	144775
#	155612
#	169300
#	181200
#
# Disc length: 2551
#
# Revision: 3
# Processed by: cddbd v1.5.1PL0 Copyright (c) Steve Scherf et al.
# Submitted via: CDex 1.30
# Normalized: r2:DSETVAR1
#
DISCID=e409f510
DTITLE=Various Artist - The World of Country and Western CD 2
DYEAR=1995
DGENRE=Country
TTITLE0=Lynn Anderson - Desperado
TTITLE1=Kenny Rogers - My Washington Woman
TTITLE2=Johnny Cash - Port Of Lonely Hearts
TTITLE3=Jerry Lee Lewis - Cold, Cold Heart
TTITLE4=Willie Nelson - You Wouldn't Cross The Street To Say Goodbye
TTITLE5=George Jones - I'll Share My World With You
TTITLE6=Bobby Bare - Tender Years
TTITLE7=Waylon Jennings - Abilene
TTITLE8=Pat Boone - Speedy Gonzales
TTITLE9=Patsy Cline - Just Out Of Reach
TTITLE10=Jerry Lee Lewis - Jambalaya
TTITLE11=Don Williams - Spend Some Time With Me
TTITLE12=Bobby Bare - Vampira
TTITLE13=Willie Nelson - Home is Where You're Happy
TTITLE14=Lynn Anderson - You Don't Have To Say You Love Me
TTITLE15=Freddy Fender - Before The Next Teardrop Falls
EXTD=\nYEAR: 1995  ID3G:   2
EXTT0=
EXTT1=
EXTT2=
EXTT3=
EXTT4=
EXTT5=
EXTT6=
EXTT7=
EXTT8=
EXTT9=
EXTT10=
EXTT11=
EXTT12=
EXTT13=
EXTT14=
EXTT15=
PLAYORDER=
